<svg width="47.999023" height="38.000000" viewBox="0 0 47.999 38" fill="none" xmlns="http://www.w3.org/2000/svg" xmlns:xlink="http://www.w3.org/1999/xlink">
	<desc>
			Created with Pixso.
	</desc>
	<defs/>
	<path id="Vector" d="M31 15L38.94 15C39.6 15 40.22 15.32 40.59 15.87L43.99 22L44.99 22C46.12 22 46.99 22.74 46.99 24.2L46.99 30.99C46.99 32.1 46.1 33 44.99 33L42.99 33" stroke="#BC2D52" stroke-opacity="1.000000" stroke-width="2.000000"/>
	<path id="Vector" d="M15 33L31 33L31 24L1 24L1 33L7 33" stroke="#BC2D52" stroke-opacity="1.000000" stroke-width="2.000000"/>
	<path id="Vector" d="M38.99 37C36.77 37 34.98 35.21 34.98 33C34.98 30.8 36.77 29.01 38.99 29.01C41.2 29.01 43 30.8 43 33C43 35.21 41.2 37 38.99 37Z" stroke="#BC2D52" stroke-opacity="1.000000" stroke-width="2.000000"/>
	<path id="Vector" d="M11 37C8.79 37 7 35.21 7 33C7 30.8 8.79 29.01 11 29.01C13.22 29.01 15.01 30.8 15.01 33C15.01 35.21 13.22 37 11 37Z" stroke="#BC2D52" stroke-opacity="1.000000" stroke-width="2.000000"/>
	<path id="Vector" d="M20 37C22.22 37 24.01 35.21 24.01 33C24.01 30.8 22.22 29.01 20 29.01C17.79 29.01 16 30.8 16 33C16 35.21 17.79 37 20 37Z" fill="#FFFFFF" fill-opacity="1.000000" fill-rule="nonzero"/>
	<path id="Vector" d="M20 37C17.79 37 16 35.21 16 33C16 30.8 17.79 29.01 20 29.01C22.22 29.01 24.01 30.8 24.01 33C24.01 35.21 22.22 37 20 37Z" stroke="#BC2D52" stroke-opacity="1.000000" stroke-width="2.000000"/>
	<path id="Vector" d="M31 33L35 33" stroke="#BC2D52" stroke-opacity="1.000000" stroke-width="2.000000"/>
	<path id="Vector" d="M33 23L40 23L42 22L44 22" stroke="#BC2D52" stroke-opacity="1.000000" stroke-width="2.000000"/>
	<line id="1" x1="31.000000" y1="24.000000" x2="31.000000" y2="14.000000" stroke="#BC2D52" stroke-opacity="1.000000" stroke-width="2.000000"/>
	<path id="Vector" d="M0 18L11 18" stroke="#BC2D52" stroke-opacity="1.000000" stroke-width="2.000000" stroke-linejoin="round"/>
	<path id="Vector" d="M19.16 18L25 18C25 18 25 12.14 25 10.35C22.35 8.09 17.62 7.35 11.63 6.29C7.59 2.39 3.93 1 0 1" stroke="#BC2D52" stroke-opacity="1.000000" stroke-width="2.000000" stroke-linejoin="round"/>
	<path id="Vector" d="M9 8L7.86 8.46C6.99 8.81 6.07 9 5.15 9L0 9" stroke="#BC2D52" stroke-opacity="1.000000" stroke-width="2.000000" stroke-linejoin="round"/>
	<path id="Vector" d="M15 22C12.79 22 11 20.2 11 18C11 15.79 12.79 14 15 14C17.2 14 19 15.79 19 18C19 20.2 17.2 22 15 22Z" stroke="#BC2D52" stroke-opacity="1.000000" stroke-width="2.000000" stroke-linejoin="round"/>
</svg>
