<svg width="48.000000" height="40.000000" viewBox="0 0 48 40" fill="none" xmlns="http://www.w3.org/2000/svg" xmlns:xlink="http://www.w3.org/1999/xlink">
	<desc>
			Created with Pixso.
	</desc>
	<defs/>
	<path id="Vector" d="M2 39L2 12L6 12L6 39" stroke="#BC2D52" stroke-opacity="1.000000" stroke-width="2.000000"/>
	<path id="Vector" d="M18 23L5 23" stroke="#BC2D52" stroke-opacity="1.000000" stroke-width="2.000000"/>
	<path id="Vector" d="M30 23L42 23" stroke="#BC2D52" stroke-opacity="1.000000" stroke-width="2.000000"/>
	<path id="Vector" d="M0 39L11 39" stroke="#BC2D52" stroke-opacity="1.000000" stroke-width="2.000000"/>
	<path id="Vector" d="M46 39L46 12L42 12L42 39" stroke="#BC2D52" stroke-opacity="1.000000" stroke-width="2.000000"/>
	<path id="Vector" d="M48 39L37 39" stroke="#BC2D52" stroke-opacity="1.000000" stroke-width="2.000000"/>
	<path id="Vector" d="M34 6L32.68 3.05C32.27 1.82 31.12 1 29.83 1L24 1L18.16 1C16.87 1 15.72 1.82 15.31 3.05L14 6" stroke="#BC2D52" stroke-opacity="1.000000" stroke-width="2.000000"/>
	<path id="Vector" d="M19 14L24 14L29 14" stroke="#BC2D52" stroke-opacity="1.000000" stroke-width="2.000000"/>
	<path id="Vector" d="M36 5C35.66 5 32.96 8 31 8L17 8C15.03 8 12.33 5 12 5L9 5C8.44 5 8 5.44 8 6L8 7.34C8 7.89 8.44 8.34 9 8.34L11 9L11 10C10.35 10.64 10 11.5 10 12.41L10 14C10 14.88 10.39 15.67 11 16.22L11 19C11 19.55 11.44 20 12 20L16 20C16.55 20 17 19.55 17 19L17 17L31 17L31 19C31 19.55 31.44 20 32 20L36 20C36.55 20 37 19.55 37 19L37 16.22C37.6 15.67 38 14.88 38 14L38 12.41C38 11.5 37.64 10.64 37 10L37 9L39 8.34C39.55 8.34 40 7.89 40 7.34L40 6C40 5.44 39.55 5 39 5L36 5Z" stroke="#BC2D52" stroke-opacity="1.000000" stroke-width="2.000000"/>
	<path id="Vector" d="M34.58 10.38C33.35 11.42 31.62 12 30 12" stroke="#BC2D52" stroke-opacity="1.000000" stroke-width="2.000000"/>
	<path id="Vector" d="M13.41 10.38C14.64 11.42 16.37 12 18 12" stroke="#BC2D52" stroke-opacity="1.000000" stroke-width="2.000000"/>
	<path id="Vector" d="M17 17L13 17" stroke="#BC2D52" stroke-opacity="1.000000" stroke-width="2.000000"/>
	<path id="Vector" d="M35 17L31 17" stroke="#BC2D52" stroke-opacity="1.000000" stroke-width="2.000000"/>
</svg>
