<svg width="48.000000" height="36.000000" viewBox="0 0 48 36" fill="none" xmlns="http://www.w3.org/2000/svg" xmlns:xlink="http://www.w3.org/1999/xlink">
	<desc>
			Created with Pixso.
	</desc>
	<defs/>
	<path id="Vector" d="M5 35C2.79 35 1 34.2 1 32L1 30L18 30L20 31L28 31L30 30L47 30L47 32C47 34.2 45.2 35 43 35L5 35Z" stroke="#BC2D52" stroke-opacity="1.000000" stroke-width="2.000000" stroke-linejoin="round"/>
	<path id="Vector" d="M4 30L4 3C4 1.89 4.89 1 6 1L42 1C43.1 1 44 1.89 44 3L44 30" stroke="#BC2D52" stroke-opacity="1.000000" stroke-width="2.000000" stroke-linejoin="round"/>
	<path id="Vector" d="M34 11L32.68 8.05C32.27 6.82 31.12 6 29.83 6L24 6L18.16 6C16.87 6 15.72 6.82 15.31 8.05L14 11" stroke="#BC2D52" stroke-opacity="1.000000" stroke-width="2.000000"/>
	<path id="Vector" d="M19 19L24 19L29 19" stroke="#BC2D52" stroke-opacity="1.000000" stroke-width="2.000000"/>
	<path id="Vector" d="M36 10C35.66 10 32.96 13 31 13L17 13C15.03 13 12.33 10 12 10L9 10C8.44 10 8 10.44 8 11L8 12.34C8 12.89 8.44 13.34 9 13.34L11 14L11 15C10.35 15.64 10 16.5 10 17.41L10 19C10 19.88 10.39 20.67 11 21.22L11 24C11 24.55 11.44 25 12 25L16 25C16.55 25 17 24.55 17 24L17 22L31 22L31 24C31 24.55 31.44 25 32 25L36 25C36.55 25 37 24.55 37 24L37 21.22C37.6 20.67 38 19.88 38 19L38 17.41C38 16.5 37.64 15.64 37 15L37 14L39 13.34C39.55 13.34 40 12.89 40 12.34L40 11C40 10.44 39.55 10 39 10L36 10Z" stroke="#BC2D52" stroke-opacity="1.000000" stroke-width="2.000000"/>
	<path id="Vector" d="M34.58 15.38C33.35 16.42 31.62 17 30 17" stroke="#BC2D52" stroke-opacity="1.000000" stroke-width="2.000000"/>
	<path id="Vector" d="M13.41 15.38C14.64 16.42 16.37 17 18 17" stroke="#BC2D52" stroke-opacity="1.000000" stroke-width="2.000000"/>
	<path id="Vector" d="M17 22L13 22" stroke="#BC2D52" stroke-opacity="1.000000" stroke-width="2.000000"/>
	<path id="Vector" d="M35 22L31 22" stroke="#BC2D52" stroke-opacity="1.000000" stroke-width="2.000000"/>
</svg>
