<svg width="48.000000" height="32.814209" viewBox="0 0 48 32.8142" fill="none" xmlns="http://www.w3.org/2000/svg" xmlns:xlink="http://www.w3.org/1999/xlink">
	<desc>
			Created with Pixso.
	</desc>
	<defs/>
	<path id="Vector" d="M23 6.37C23 11.69 23 15.41 23 20C23 25.44 34.34 31.64 35 31.81C35.65 31.64 47 25.44 47 20C47 15.41 47 11.69 47 6.37C43.72 6.37 36.14 2.6 35 1C33.85 2.6 26.27 6.37 23 6.37Z" stroke="#BC2D52" stroke-opacity="1.000000" stroke-width="2.000000" stroke-linejoin="round"/>
	<path id="Vector" d="M27 9.66C27 13.29 27 15.82 27 18.94C27 22.66 34.56 26.88 35 27C35.43 26.88 43 22.66 43 18.94C43 15.82 43 13.29 43 9.66C40.81 9.66 35.76 7.09 35 6C34.23 7.09 29.18 9.66 27 9.66Z" stroke="#BC2D52" stroke-opacity="1.000000" stroke-width="2.000000" stroke-linejoin="round"/>
	<path id="Vector" d="M21 24L7 24C5.34 24 4 22.65 4 21L4 15.81C4 14.63 4.35 13.47 5 12.48L6 11L2 10C1.44 10 1 9.55 1 9L1 7C1 6.44 1.44 6 2 6L7 6L9 9L12 10L21 10" stroke="#BC2D52" stroke-opacity="1.000000" stroke-width="2.000000" stroke-linejoin="round"/>
	<path id="Vector" d="M7 14L9 16L14 16" stroke="#BC2D52" stroke-opacity="1.000000" stroke-width="2.000000" stroke-linejoin="round"/>
	<path id="Vector" d="M5 23L5 27C5 27.55 5.44 28 6 28L13 28C13.55 28 14 27.55 14 27L14 26" stroke="#BC2D52" stroke-opacity="1.000000" stroke-width="2.000000" stroke-linejoin="round"/>
	<path id="Vector" d="M30 1C30 1 14.64 1 13 1C12.3 1 11.45 1.45 11 2C10.54 2.54 8 8 8 8" stroke="#BC2D52" stroke-opacity="1.000000" stroke-width="2.000000" stroke-linejoin="round"/>
	<path id="Vector" d="M14 20L21 20" stroke="#BC2D52" stroke-opacity="1.000000" stroke-width="2.000000" stroke-linejoin="round"/>
</svg>
