<svg width="47.999939" height="31.000000" viewBox="0 0 47.9999 31" fill="none" xmlns="http://www.w3.org/2000/svg" xmlns:xlink="http://www.w3.org/1999/xlink">
	<desc>
			Created with Pixso.
	</desc>
	<defs/>
	<path id="Vector" d="M24 26L7 26C5.34 26 4 24.65 4 23L4 17.81C4 16.63 4.35 15.47 5 14.48L6 13L2 12C1.44 12 1 11.55 1 11L1 9C1 8.44 1.44 8 2 8L7 8L9 11L12 12L24 12" stroke="#BC2D52" stroke-opacity="1.000000" stroke-width="2.000000" stroke-linejoin="round" stroke-linecap="round"/>
	<path id="Vector" d="M7 16L7.53 16.53C8.47 17.47 9.74 18 11.07 18L14 18" stroke="#BC2D52" stroke-opacity="1.000000" stroke-width="2.000000"/>
	<path id="Vector" d="M5 25L5 29C5 29.55 5.44 30 6 30L13 30C13.55 30 14 29.55 14 29L14 26" stroke="#BC2D52" stroke-opacity="1.000000" stroke-width="2.000000" stroke-linejoin="round"/>
	<path id="Vector" d="M24 26L29 26L33 24L41 26C42.65 26 44 24.65 44 23L44 17.81C44 16.63 43.64 15.47 42.99 14.48L42 13L46.09 11.01C46.64 10.95 47.04 10.46 46.99 9.91L46.8 7.92C46.74 7.37 46.25 6.97 45.71 7.02L42 7L39 11L37 12L35 14L32 12L29 13L24 12" stroke="#BC2D52" stroke-opacity="1.000000" stroke-width="2.000000" stroke-linejoin="round" stroke-linecap="round"/>
	<path id="Vector" d="M40 10L38 5L36 3L33 4L29 1C29 1 14.49 1 13 1C12.3 1 11.45 1.45 11 2C10.54 2.54 8 10 8 10" stroke="#BC2D52" stroke-opacity="1.000000" stroke-width="2.000000"/>
	<path id="Vector" d="M40.48 16.91L40.14 17.58C39.54 18.77 38.5 19.67 37.24 20.08L34.46 21" stroke="#BC2D52" stroke-opacity="1.000000" stroke-width="2.000000"/>
	<path id="Vector" d="M43 25L43 29C43 29.55 42.55 30 42 30L35 30C34.44 30 34 29.55 34 29L34 25" stroke="#BC2D52" stroke-opacity="1.000000" stroke-width="2.000000" stroke-linejoin="round"/>
	<path id="Vector" d="M14 22L25 22L28 20L30 20L32 21" stroke="#BC2D52" stroke-opacity="1.000000" stroke-width="2.000000"/>
	<path id="Vector" d="M33 4L28 6L31 9" stroke="#BC2D52" stroke-opacity="1.000000" stroke-width="2.000000" stroke-linejoin="round"/>
	<path id="Vector" d="M28 6L24 5L20 8" stroke="#BC2D52" stroke-opacity="1.000000" stroke-width="2.000000" stroke-linejoin="round"/>
</svg>
