<svg width="47.004906" height="45.997864" viewBox="0 0 47.0049 45.9979" fill="none" xmlns="http://www.w3.org/2000/svg" xmlns:xlink="http://www.w3.org/1999/xlink">
	<desc>
			Created with Pixso.
	</desc>
	<defs/>
	<path id="Vector" d="M46 41.99C45.52 42 45.04 42.2 44.64 42.6L42.83 44.39C42.01 45.2 40.89 45.19 40.07 44.37L38.34 42.62C37.95 42.21 37.47 42.01 37 41.99C36.52 42 36.04 42.2 35.64 42.6L33.83 44.39C33.01 45.2 31.89 45.19 31.07 44.37L29.34 42.62C28.95 42.21 28.47 42 28 41.99C27.52 41.99 27.04 42.2 26.63 42.6L24.83 44.39C24.01 45.2 22.89 45.19 22.07 44.37L20.34 42.62C19.94 42.21 19.47 42 19 41.99C18.52 41.99 18.04 42.19 17.63 42.6L15.83 44.39C15.01 45.2 13.89 45.19 13.07 44.37L11.34 42.61C10.94 42.21 10.47 42 10 41.99C9.52 41.99 9.04 42.19 8.63 42.59L6.83 44.38C6.01 45.2 4.88 45.19 4.07 44.37L2.34 42.61C1.94 42.21 1.47 42 1 41.99" stroke="#BC2D52" stroke-opacity="1.000000" stroke-width="2.000000" stroke-linecap="round"/>
	<path id="Vector" d="M13.99 36.93C13.67 36.84 13.35 36.65 13.07 36.37L11.34 34.62C10.95 34.22 10.47 34.01 10 34C9.52 34 9.04 34.2 8.64 34.6L6.83 36.39C6.01 37.2 4.89 37.2 4.07 36.37L2.34 34.62C1.95 34.22 1.47 34.01 1 33.99" stroke="#BC2D52" stroke-opacity="1.000000" stroke-width="2.000000" stroke-linecap="round"/>
	<path id="Vector" d="M46 34C45.52 34 45.04 34.2 44.64 34.6L42.83 36.39C42.01 37.2 40.89 37.2 40.07 36.37L38.34 34.62C37.95 34.22 37.47 34.01 37 33.99C36.52 34 36.04 34.2 35.64 34.6L33.83 36.39C33.29 36.92 32.63 37.1 32 36.93" stroke="#BC2D52" stroke-opacity="1.000000" stroke-width="2.000000" stroke-linecap="round"/>
	<path id="Vector" d="M26 4C26 2.34 24.66 1 23 1C21.34 1 20 2.34 20 4L20 27.81C18.21 28.84 17 30.78 17 33C17 36.31 19.69 39 23 39C26.31 39 29 36.31 29 33C29 30.78 27.79 28.84 26 27.81L26 4Z" stroke="#BC2D52" stroke-opacity="1.000000" stroke-width="2.000000" stroke-linejoin="round"/>
	<path id="Vector" d="M24 7L29 7" stroke="#BC2D52" stroke-opacity="1.000000" stroke-width="2.000000" stroke-linejoin="round"/>
	<path id="Vector" d="M24 12L29 12" stroke="#BC2D52" stroke-opacity="1.000000" stroke-width="2.000000" stroke-linejoin="round"/>
	<path id="Vector" d="M24 17L29 17" stroke="#BC2D52" stroke-opacity="1.000000" stroke-width="2.000000" stroke-linejoin="round"/>
	<path id="Vector" d="M24 22L29 22" stroke="#BC2D52" stroke-opacity="1.000000" stroke-width="2.000000" stroke-linejoin="round"/>
</svg>
