<svg width="47.999939" height="32.204834" viewBox="0 0 47.9999 32.2048" fill="none" xmlns="http://www.w3.org/2000/svg" xmlns:xlink="http://www.w3.org/1999/xlink">
	<desc>
			Created with Pixso.
	</desc>
	<defs/>
	<path id="Vector" d="M7 14L9 16L14 16" stroke="#BC2D52" stroke-opacity="1.000000" stroke-width="2.000000"/>
	<path id="Vector" d="M5 23L5 27C5 27.55 5.44 28 6 28L13 28C13.55 28 14 27.55 14 27L14 24" stroke="#BC2D52" stroke-opacity="1.000000" stroke-width="2.000000" stroke-linejoin="round"/>
	<path id="Vector" d="M32 10L23 10L12 10L9 9L7 6L2 6C1.44 6 1 6.44 1 7L1 9C1 9.55 1.44 10 2 10L6 11L5 12.48C4.35 13.47 4 14.63 4 15.81L4 21C4 22.65 5.34 24 7 24L23 24L32 24" stroke="#BC2D52" stroke-opacity="1.000000" stroke-width="2.000000" stroke-linejoin="round"/>
	<path id="Vector" d="M36.08 4C35.59 3.02 35.16 2.19 35 2C34.54 1.45 33.7 1 33 1C31.43 1 15.12 1 13 1C12.3 1 11.46 1.45 11 2C10.54 2.54 8 8 8 8" stroke="#BC2D52" stroke-opacity="1.000000" stroke-width="2.000000"/>
	<path id="Vector" d="M14 20L25 20" stroke="#BC2D52" stroke-opacity="1.000000" stroke-width="2.000000"/>
	<path id="Vector" d="M41 2L28 20L36 19L32.98 31.2L47 13L39 14L41 2Z" stroke="#BC2D52" stroke-opacity="1.000000" stroke-width="2.000000" stroke-linejoin="round"/>
</svg>
