<svg width="43.000000" height="47.000000" viewBox="0 0 43 47" fill="none" xmlns="http://www.w3.org/2000/svg" xmlns:xlink="http://www.w3.org/1999/xlink">
	<desc>
			Created with Pixso.
	</desc>
	<defs/>
	<path id="Vector" d="M38.49 46C36.56 46 34.99 44.43 34.99 42.5C34.99 40.57 36.56 39 38.49 39C40.42 39 41.99 40.57 41.99 42.5C41.99 44.43 40.42 46 38.49 46Z" stroke="#BC2D52" stroke-opacity="1.000000" stroke-width="2.000000" stroke-linejoin="round"/>
	<path id="Vector" d="M16 22.99C16 24.65 14.65 25.99 13 25.99L12 25.99C10.34 25.99 9 24.65 9 22.99L9 15.99C9 14.34 10.34 12.99 12 12.99L13 12.99C14.65 12.99 16 14.34 16 15.99" stroke="#BC2D52" stroke-opacity="1.000000" stroke-width="2.000000"/>
	<path id="Vector" d="M24 25.99L22 25.99C20.34 25.99 19 24.65 19 22.99L19 15.99C19 14.34 20.34 12.99 22 12.99L24 12.99C25.65 12.99 27 14.34 27 15.99L27 22.99C27 24.65 25.65 25.99 24 25.99Z" stroke="#BC2D52" stroke-opacity="1.000000" stroke-width="2.000000"/>
	<path id="Vector" d="M35 27.99L35 29.99L30 29.99L30 28.99C32.41 26.64 33.64 26.23 34.35 25.35C34.88 24.69 35.24 22.43 33.54 21.84C32.15 21.35 30.4 21.74 29.96 23.64" stroke="#BC2D52" stroke-opacity="1.000000" stroke-width="2.000000" stroke-linejoin="round"/>
	<path id="Vector" d="M37 12C37 5.92 32.07 1 26 1C22.37 1 19.16 2.76 17.16 5.46C16.16 5.16 15.1 5 14 5C7.92 5 3 9.92 3 16C3 16.42 3.02 16.84 3.07 17.25C1.77 18.81 1 20.81 1 23C1 27.97 5.02 32 10 32C10.17 32 10.34 31.98 10.51 31.97C11.74 35.48 15.07 38 19 38C21.46 38 23.69 37 25.31 35.4C26.97 36.41 28.91 37 31 37C37.07 37 42 32.07 42 26C42 21.78 39.62 18.12 36.13 16.27C36.69 14.96 37 13.51 37 12Z" stroke="#BC2D52" stroke-opacity="1.000000" stroke-width="2.000000"/>
	<path id="Vector" d="M15.83 7.77C16.18 6.94 16.62 6.17 17.15 5.45" stroke="#BC2D52" stroke-opacity="1.000000" stroke-width="2.000000" stroke-linejoin="round"/>
	<path id="Vector" d="M26.91 33.28C26.49 34.05 25.97 34.75 25.36 35.36" stroke="#BC2D52" stroke-opacity="1.000000" stroke-width="2.000000" stroke-linejoin="round"/>
</svg>
