<svg width="48.000000" height="35.000000" viewBox="0 0 48 35" fill="none" xmlns="http://www.w3.org/2000/svg" xmlns:xlink="http://www.w3.org/1999/xlink">
	<desc>
			Created with Pixso.
	</desc>
	<defs/>
	<path id="Vector" d="M8 19L8 15L12 15L19 8L38 8L38 17" stroke="#BC2D52" stroke-opacity="1.000000" stroke-width="2.000000"/>
	<path id="Vector" d="M38 21L38 34L25 34L22 31L13 31L13 24L8 24L8 20" stroke="#BC2D52" stroke-opacity="1.000000" stroke-width="2.000000"/>
	<path id="Vector" d="M38 15L42 15L42 11L47 11L47 28L42 28L42 24L38 24" stroke="#BC2D52" stroke-opacity="1.000000" stroke-width="2.000000"/>
	<path id="Vector" d="M8 17L5 17L5 12L1 12L1 27L5 27L5 22L8 22" stroke="#BC2D52" stroke-opacity="1.000000" stroke-width="2.000000"/>
	<path id="Vector" d="M29 6L29 4L31 4L31 1L20 1L20 4L22 4L22 6" stroke="#BC2D52" stroke-opacity="1.000000" stroke-width="2.000000"/>
	<path id="Rectangle 6" d="M32 27L17 27L17 17.5L23 12L34 12L34 27L32 27ZM32 25L19 25L19 18.37L23.77 14L32 14L32 25Z" fill="#BC2D52" fill-opacity="1.000000" fill-rule="evenodd"/>
</svg>
