<svg width="48.000000" height="36.000000" viewBox="0 0 48 36" fill="none" xmlns="http://www.w3.org/2000/svg" xmlns:xlink="http://www.w3.org/1999/xlink">
	<desc>
			Created with Pixso.
	</desc>
	<defs/>
	<path id="Vector" d="M20 23L7 23C5.34 23 4 21.65 4 20L4 15C4 14.5 4.05 13.91 4.16 13.74L5.21 12.18C5.59 11.6 5.29 10.82 4.62 10.65L2 10C1.44 10 1 9.55 1 9L1 7C1 6.44 1.44 6 2 6L6.46 6C6.79 6 7.11 6.16 7.29 6.44L8.61 8.42C8.81 8.69 10.76 10 12 10C12.69 10 21 10 21 10" stroke="#BC2D52" stroke-opacity="1.000000" stroke-width="2.000000"/>
	<path id="Vector" d="M33.86 7.7C33.86 7.7 32.37 3.88 32.09 3.22C31.7 2.32 30.89 2.04 29.88 1.83C27.89 1.41 25.43 1 21 1C16.56 1 14.1 1.41 12.11 1.83C11.1 2.04 10.29 2.32 9.91 3.22C9.62 3.88 8.13 7.7 8.13 7.7" stroke="#BC2D52" stroke-opacity="1.000000" stroke-width="2.000000"/>
	<path id="Vector" d="M7 14C8.28 15.28 10.01 16 11.82 16L14 16" stroke="#BC2D52" stroke-opacity="1.000000" stroke-width="2.000000"/>
	<path id="Vector" d="M5 22L5 26C5 26.55 5.44 27 6 27L13 27C13.55 27 14 26.55 14 26L14 23" stroke="#BC2D52" stroke-opacity="1.000000" stroke-width="2.000000"/>
	<path id="Vector" d="M21 19L14 19" stroke="#BC2D52" stroke-opacity="1.000000" stroke-width="2.000000"/>
	<path id="Vector" d="M38 15C38 14.5 37.94 13.91 37.83 13.74L36.78 12.18C36.4 11.6 36.7 10.82 37.37 10.65L40 10C40.55 10 41 9.55 41 9L41 7C41 6.44 40.55 6 40 6L35.53 6C35.2 6 34.88 6.16 34.7 6.44L33.38 8.42C33.18 8.69 31.23 10 30 10C29.3 10 21 10 21 10" stroke="#BC2D52" stroke-opacity="1.000000" stroke-width="2.000000"/>
	<path id="Vector" d="M35 14C33.71 15.28 31.98 16 30.17 16L28 16" stroke="#BC2D52" stroke-opacity="1.000000" stroke-width="2.000000"/>
	<path id="Vector" d="M21 19L28 19" stroke="#BC2D52" stroke-opacity="1.000000" stroke-width="2.000000"/>
	<path id="Vector" d="M30 26.87L25 21.87L21 25.87L29.83 35L47 18L43 14L30 26.87Z" stroke="#BC2D52" stroke-opacity="1.000000" stroke-width="2.000000" stroke-linejoin="round"/>
</svg>
