<svg width="52.694763" height="48.716553" viewBox="0 0 52.6948 48.7166" fill="none" xmlns="http://www.w3.org/2000/svg" xmlns:xlink="http://www.w3.org/1999/xlink">
	<desc>
			Created with Pixso.
	</desc>
	<defs/>
	<path id="Vector" d="M34.18 14.58L28.55 4.91C28.07 4.09 27.04 3.8 26.24 4.26L2.29 17.97C1.49 18.43 1.22 19.46 1.7 20.29L7.87 30.89L10.36 35.15C10.83 35.97 11.87 36.27 12.67 35.81L16.3 33.73" stroke="#BC2D52" stroke-opacity="1.000000" stroke-width="2.000000"/>
	<path id="Vector" d="M30.04 7.09L2.95 22.73" stroke="#BC2D52" stroke-opacity="1.000000" stroke-width="2.000000"/>
	<path id="Vector" d="M32.58 11.48L5.49 27.12" stroke="#BC2D52" stroke-opacity="1.000000" stroke-width="2.000000"/>
	<path id="Vector" d="M15.48 28.93L24.13 43.79C24.61 44.61 25.65 44.91 26.45 44.45L50.4 30.74C51.2 30.28 51.46 29.24 50.98 28.42L42.33 13.55C41.85 12.73 40.81 12.44 40.01 12.9L16.06 26.61C15.26 27.07 15 28.11 15.48 28.93Z" stroke="#BC2D52" stroke-opacity="1.000000" stroke-width="2.000000"/>
	<path id="Vector" d="M24.73 38.47L28.39 36.35" stroke="#BC2D52" stroke-opacity="1.000000" stroke-width="2.000000"/>
	<path id="Vector" d="M30.58 35.08L34.25 32.97" stroke="#BC2D52" stroke-opacity="1.000000" stroke-width="2.000000"/>
	<path id="Vector" d="M36.44 31.7L40.1 29.59" stroke="#BC2D52" stroke-opacity="1.000000" stroke-width="2.000000"/>
	<path id="Vector" d="M42.3 28.32L45.96 26.21" stroke="#BC2D52" stroke-opacity="1.000000" stroke-width="2.000000"/>
	<path id="Vector" d="M40.58 24.48L39.86 24.9C38.46 25.7 36.64 25.19 35.81 23.75C34.97 22.32 35.43 20.51 36.83 19.71L37.56 19.29C38.96 18.49 40.77 19 41.6 20.44C42.44 21.87 41.98 23.68 40.58 24.48Z" stroke="#BC2D52" stroke-opacity="1.000000" stroke-width="2.000000"/>
</svg>
