<svg width="41.000000" height="40.147949" viewBox="0 0 41 40.1479" fill="none" xmlns="http://www.w3.org/2000/svg" xmlns:xlink="http://www.w3.org/1999/xlink">
	<desc>
			Created with Pixso.
	</desc>
	<defs/>
	<path id="Vector" d="M24.6 25.71L20.06 22.07L20.06 13" stroke="#BC2D52" stroke-opacity="1.000000" stroke-width="2.000000"/>
	<path id="Vector" d="M20.06 6.44C12.54 6.44 6.44 12.54 6.44 20.06C6.44 27.59 12.54 33.68 20.06 33.68C23.69 33.86 27.74 32.52 30.57 29.69C35.88 24.37 36.02 15.75 30.7 10.43L28.43 8.16L26.52 10.07L25.51 10.07L25.51 1L34.59 1L34.59 1.9L32.21 4.33L34.46 6.58C41.91 14.03 41.8 26.1 34.36 33.55C30.47 37.43 25.51 39.31 20.06 39.13C10.07 39.13 1 30.59 1 20.06" stroke="#BC2D52" stroke-opacity="1.000000" stroke-width="2.000000"/>
</svg>
