<svg width="39.466431" height="42.002930" viewBox="0 0 39.4664 42.0029" fill="none" xmlns="http://www.w3.org/2000/svg" xmlns:xlink="http://www.w3.org/1999/xlink">
	<desc>
			Created with Pixso.
	</desc>
	<defs/>
	<path id="Vector" d="M26.11 40.99L20.53 30.76L12.16 30.76C9.47 30.76 8.89 28.81 8.44 27.04C8.44 27.04 5.08 15.46 4.72 14.02C4.34 12.51 5.04 11.23 6.58 11.23L7.51 11.23C10.03 11.23 11.08 13.84 12.16 16.81L14.95 25.18L22.83 26.78C23.72 26.95 24.48 27.53 24.86 28.35L30.76 41" stroke="#BC2D52" stroke-opacity="1.000000" stroke-width="2.000000" stroke-linecap="round"/>
	<path id="Vector" d="M18.67 34.48L10.3 34.48C7.74 34.48 6.54 33.2 5.65 30.76L1 15.88" stroke="#BC2D52" stroke-opacity="1.000000" stroke-width="2.000000" stroke-linecap="round"/>
	<path id="Vector" d="M28.23 21.46C22.58 21.46 18 16.88 18 11.23C18 5.58 22.58 1 28.23 1C33.88 1 38.46 5.58 38.46 11.23C38.46 16.88 33.88 21.46 28.23 21.46Z" stroke="#BC2D52" stroke-opacity="1.000000" stroke-width="2.000000"/>
	<path id="Vector" d="M28 6L28 13L32 13" stroke="#BC2D52" stroke-opacity="1.000000" stroke-width="2.000000"/>
	<path id="Vector" d="M6.72 9.44C4.66 9.44 3 7.77 3 5.72C3 3.66 4.66 2 6.72 2C8.77 2 10.44 3.66 10.44 5.72C10.44 7.77 8.77 9.44 6.72 9.44Z" stroke="#BC2D52" stroke-opacity="1.000000" stroke-width="2.000000" stroke-linejoin="round"/>
	<path id="Vector" d="M11.23 34.48L11.23 40.99" stroke="#BC2D52" stroke-opacity="1.000000" stroke-width="2.000000" stroke-linejoin="round" stroke-linecap="round"/>
</svg>
