<svg width="38.782612" height="49.000000" viewBox="0 0 38.7826 49" fill="none" xmlns="http://www.w3.org/2000/svg" xmlns:xlink="http://www.w3.org/1999/xlink">
	<desc>
			Created with Pixso.
	</desc>
	<defs/>
	<path id="Vector" d="M1 9.17C1 18.1 1 20.91 1 28.59C1 37.72 18.36 47.71 19.39 48C20.41 47.71 37.78 37.02 37.78 29.61C37.78 21.93 37.78 18.1 37.78 9.17C32.67 9.17 21.18 3.68 19.4 1C17.61 3.68 5.68 9.17 1 9.17Z" stroke="#BC2D52" stroke-opacity="1.000000" stroke-width="2.000000" stroke-linejoin="round"/>
	<path id="Vector" d="M19.39 27.35C17.6 27.35 16.16 25.9 16.16 24.12C16.16 22.34 17.6 20.89 19.39 20.89C21.17 20.89 22.61 22.34 22.61 24.12C22.61 25.9 21.17 27.35 19.39 27.35Z" stroke="#BC2D52" stroke-opacity="1.000000" stroke-width="2.000000" stroke-linejoin="round"/>
	<path id="Vector" d="M27.65 22L30 20.61L27.61 16.38L25.27 17.76C24.32 16.85 23.17 16.15 21.88 15.76L21.88 13L17.11 13L17.11 15.78C15.84 16.17 14.69 16.87 13.76 17.78L11.38 16.38L9 20.61L11.39 22.03C11.25 22.65 11.16 23.3 11.16 23.97C11.16 24.65 11.25 25.32 11.4 25.96L9 27.38L11.38 31.61L13.79 30.19C14.73 31.08 15.85 31.77 17.11 32.16L17.11 35L21.88 35L21.88 32.17C23.15 31.79 24.29 31.11 25.23 30.21L27.61 31.61L30 27.38L27.64 25.98C27.79 25.34 27.88 24.66 27.88 23.97C27.88 23.29 27.79 22.63 27.65 22Z" stroke="#BC2D52" stroke-opacity="1.000000" stroke-width="2.000000" stroke-linejoin="round"/>
</svg>
