<svg width="45.999939" height="24.956543" viewBox="0 0 45.9999 24.9565" fill="none" xmlns="http://www.w3.org/2000/svg" xmlns:xlink="http://www.w3.org/1999/xlink">
	<desc>
			Created with Pixso.
	</desc>
	<defs/>
	<path id="Vector" d="M23 23.95C16.66 23.95 11.52 18.81 11.52 12.47C11.52 6.13 16.66 1 23 1C29.33 1 34.47 6.13 34.47 12.47C34.47 18.81 29.33 23.95 23 23.95Z" stroke="#BC2D52" stroke-opacity="1.000000" stroke-width="2.000000"/>
	<path id="Vector" d="M21.08 8.09C21.67 7.83 22.31 7.69 23 7.69C25.64 7.69 27.78 9.83 27.78 12.47C27.78 15.11 25.64 17.26 23 17.26C20.35 17.26 18.21 15.12 18.21 12.47C18.21 11.79 18.35 11.15 18.61 10.56" stroke="#BC2D52" stroke-opacity="1.000000" stroke-width="2.000000"/>
	<path id="Vector" d="M26.82 23.57C25.56 23.82 24.26 23.95 22.93 23.95C10.7 23.95 1 12.47 1 12.47C1 12.47 10.7 1 22.93 1C35.15 1 45 12.47 45 12.47C45 12.47 37.18 21.59 26.82 23.57Z" stroke="#BC2D52" stroke-opacity="1.000000" stroke-width="2.000000" stroke-linejoin="round"/>
</svg>
