<svg width="194.000000" height="53.350006" viewBox="0 0 194 53.35" fill="none" xmlns="http://www.w3.org/2000/svg" xmlns:xlink="http://www.w3.org/1999/xlink">
	<desc>
			Created with Pixso.
	</desc>
	<defs/>
	<path id="Лого ДВС 3 (Traced)" d="M0 26.67L0 53.35L97 53.35L194 53.35L194 26.67L194 0L97 0L0 0L0 26.67ZM64.26 12.73C67.15 13.69 68.53 15.06 69.05 17.48C69.3 18.64 69.31 19.88 69.09 22.08L68.91 23.79L67.44 23.79C66.63 23.79 65.35 23.83 64.58 23.89L63.19 23.99L64.22 25C66.06 26.83 66.7 28.22 66.8 30.64C66.86 32.05 66.82 32.44 66.48 33.6C65.66 36.49 64.61 38.1 62.68 39.47C61.09 40.6 59.65 41.19 57.47 41.6C54.31 42.21 51.05 41.47 49.34 39.77C48.05 38.48 47.35 36.37 47.53 34.28C47.6 33.47 47.49 33.67 45.94 37.28L44.28 41.14L39.19 41.18L34.1 41.22L34.1 39.73C34.1 38.91 34.05 36.78 34 35L33.89 31.75L33.56 33.04C32.78 36.03 31.92 37.48 30.06 38.97C27.55 40.96 24.63 41.45 16.39 41.27L12.1 41.17L12.19 40.63C12.28 40.13 13.29 35.28 15.85 23.11C16.39 20.52 17.07 17.25 17.37 15.83C17.66 14.42 17.93 13.18 17.96 13.08C18.03 12.83 21.5 12.65 26.22 12.65C29.94 12.66 30.32 12.68 31.44 13C32.11 13.19 32.87 13.49 33.14 13.65L33.62 13.95L33.67 13.38L33.72 12.8L38.7 12.76L43.69 12.72L43.59 14.51C43.54 15.49 43.46 17.21 43.41 18.33L43.33 20.38L44.25 17.96C44.76 16.62 45.42 14.9 45.71 14.13L46.25 12.73L51.26 12.73L56.26 12.73L56.16 13.11L56.06 13.49L56.64 13.2C57.17 12.93 58.52 12.52 59.41 12.36C60.37 12.19 63.29 12.41 64.26 12.73ZM161.53 13.07C163.7 13.72 164.86 14.76 165.5 16.65C165.75 17.41 165.82 17.98 165.82 19.45C165.82 20.46 165.88 21.19 165.94 21.06C166.01 20.94 166.83 19.01 167.78 16.78L169.49 12.73L174.39 12.73L179.29 12.73L179.29 13.83C179.3 14.43 179.36 17.07 179.44 19.7C179.52 22.32 179.65 27.68 179.74 31.6C179.83 35.51 179.93 39.28 179.97 39.97L180.04 41.22L175.19 41.22L170.35 41.22L170.35 38.79L170.35 36.35L169.71 36.4L169.06 36.45L168.58 37.66C168.32 38.33 167.89 39.4 167.62 40.05L167.15 41.22L162.31 41.22C158.98 41.22 157.47 41.17 157.47 41.06C157.47 40.97 157.53 40.77 157.61 40.63C157.75 40.38 157.65 40.38 156.39 40.71C154.72 41.15 150.74 41.44 148.22 41.32C147.26 41.27 140.84 41.23 133.94 41.22L121.4 41.22L121.39 39.14C121.39 36.46 121.36 36.34 120.67 36.4L120.13 36.45L119.14 38.83L118.16 41.22L102.27 41.22C90.64 41.22 86.39 41.17 86.39 41.05C86.39 40.9 88.99 28.66 90.79 20.3C91.13 18.76 91.62 16.44 91.9 15.15L92.4 12.8L98.33 12.76L104.27 12.72L104.27 13.59C104.27 14.07 104.2 15.57 104.1 16.92C104.01 18.27 103.96 19.46 104 19.56C104.03 19.66 104.68 18.18 105.44 16.27L106.82 12.8L112.67 12.76C117.86 12.73 118.52 12.75 118.52 12.96C118.52 13.09 118.35 13.96 118.15 14.89C117.05 19.9 116.68 21.7 116.73 21.75C116.76 21.78 117.67 19.76 118.75 17.26L120.71 12.72L125.71 12.76L130.72 12.8L130.81 21.1C130.86 25.67 130.94 29.44 130.98 29.48C131.02 29.52 131.69 28.59 132.47 27.39C133.25 26.2 134.45 24.36 135.14 23.31C135.84 22.25 136.4 21.35 136.4 21.3C136.4 21.25 135.17 21.21 133.67 21.21C132.17 21.21 130.95 21.15 130.95 21.08C130.95 21 131.31 19.32 131.76 17.33C132.21 15.34 132.63 13.49 132.68 13.22L132.79 12.73L142.97 12.68C159.06 12.6 160.03 12.62 161.53 13.07ZM59.79 14.39C56.01 14.87 53.29 17.73 52.59 21.95C52.12 24.77 53.54 27.25 56.55 28.86C58.1 29.68 58.87 30.35 59.32 31.26C60.01 32.64 59.72 34 58.51 35.04C56.44 36.81 54.55 35.5 55 32.61C55.26 30.92 55.4 31.06 53.46 31.08C52.52 31.09 51.42 31.14 51.01 31.19L50.26 31.29L49.9 32.58C49.45 34.18 49.48 36.05 49.96 37.13C50.6 38.56 52.01 39.46 54.05 39.75C56.02 40.02 58.92 39.34 61.02 38.11C62.83 37.05 63.93 35.44 64.57 32.92C65.1 30.84 64.87 29.16 63.85 27.62C63.28 26.76 62.41 26 60.02 24.25C58.14 22.88 57.72 22.37 57.62 21.36C57.43 19.37 59.12 17.76 60.82 18.33C61.78 18.64 62.03 19.08 62.11 20.58L62.17 21.92L64.62 21.85C65.96 21.81 67.09 21.76 67.12 21.74C67.15 21.71 67.17 20.85 67.17 19.82C67.18 17.69 66.97 16.91 66.18 16.09C64.94 14.79 62.27 14.08 59.79 14.39ZM22.67 14.71C21.1 14.77 19.76 14.88 19.7 14.95C19.64 15.02 19.1 17.43 18.5 20.3C17.25 26.3 16.4 30.37 15.31 35.52C14.89 37.51 14.55 39.15 14.55 39.17C14.55 39.19 15.85 39.24 17.45 39.3C22.18 39.45 25.9 39.04 27.54 38.21C29.28 37.32 30.61 35.71 31.27 33.68C31.7 32.38 33.53 23.39 33.78 21.37C34.14 18.49 33.88 17.02 32.83 15.96C32.04 15.18 31.12 14.88 28.87 14.69C27.05 14.54 26.88 14.54 22.67 14.71ZM152.56 14.7C150.99 14.77 149.67 14.86 149.64 14.9C149.58 14.96 148.09 21.94 146.18 31.07C145.9 32.44 145.4 34.83 145.07 36.38L144.48 39.2L147.43 39.3C152.17 39.45 155.8 39.04 157.58 38.16C158.68 37.61 159.94 36.35 160.54 35.2C161.28 33.78 161.43 33.23 162.65 27.2C163.68 22.14 163.73 21.8 163.74 19.7C163.76 17.67 163.73 17.44 163.39 16.76C162.94 15.84 162.06 15.25 160.67 14.94C159.33 14.64 156.06 14.54 152.56 14.7ZM37.14 14.81L35.72 14.86L35.82 20.73C35.87 23.95 35.96 29.44 36.01 32.92L36.11 39.26L39.52 39.21L42.92 39.17L48.06 27.06C50.88 20.39 53.19 14.92 53.19 14.89C53.19 14.87 51.94 14.85 50.41 14.85C47.89 14.85 47.61 14.87 47.51 15.11C47.46 15.26 45.94 19.3 44.15 24.09C42.35 28.89 40.83 32.91 40.75 33.04C40.66 33.18 40.64 32.9 40.69 32.28C40.74 31.74 40.88 29.01 41 26.22C41.13 23.42 41.3 19.84 41.38 18.26C41.45 16.67 41.52 15.23 41.52 15.04C41.52 14.66 41.41 14.66 37.14 14.81ZM93.9 15.42C93.84 15.73 93.49 17.42 93.11 19.17C92.38 22.55 91.54 26.52 90.4 31.82C89.32 36.89 88.97 38.54 88.88 38.91L88.8 39.26L91.64 39.22L94.48 39.17L96.25 30.26C97.22 25.36 98.06 21.31 98.11 21.26C98.17 21.2 98.18 21.94 98.14 22.89C98.09 23.84 98.02 27.91 97.98 31.94L97.9 39.25L99.83 39.25L101.77 39.25L102.93 36.41C105.8 29.42 109.23 21.21 109.31 21.12C109.36 21.07 109.37 21.16 109.33 21.33C109.28 21.49 108.38 25.59 107.32 30.43L105.39 39.25L108.13 39.25L110.87 39.25L111.21 37.62C111.41 36.72 111.86 34.59 112.23 32.88C112.59 31.18 113.14 28.62 113.44 27.2C114.06 24.27 115.2 18.95 115.66 16.82C115.83 16.03 116 15.26 116.04 15.11C116.11 14.86 115.88 14.85 112.13 14.88L108.15 14.92L104.96 22.96C103.2 27.37 101.64 31.26 101.5 31.6L101.23 32.2L101.31 30.69C101.44 28.27 101.69 23.78 101.85 21.06C101.93 19.69 102.04 17.73 102.09 16.7L102.19 14.85L98.1 14.85L94 14.85L93.9 15.42ZM121.79 15.34C121.68 15.61 120.8 17.64 119.84 19.85C113.22 35.11 111.65 38.75 111.59 38.98C111.52 39.23 111.71 39.25 114.15 39.25L116.79 39.25L117.76 36.88C118.3 35.58 118.81 34.49 118.89 34.47C118.98 34.44 120.02 34.39 121.21 34.37L123.37 34.32L123.37 36.78L123.37 39.25L132.94 39.21L142.51 39.17L143.07 36.96L143.63 34.75L142.27 34.65C141.52 34.59 139.82 34.55 138.5 34.55C137.18 34.55 136.1 34.52 136.1 34.48C136.1 34.42 142.53 25.11 146.27 19.77C146.6 19.3 146.76 18.76 147.01 17.35C147.19 16.35 147.37 15.38 147.42 15.19L147.5 14.84L140.94 14.88L134.38 14.92L133.95 16.82C133.72 17.86 133.53 18.83 133.53 18.98C133.52 19.21 133.81 19.24 136.85 19.28L140.18 19.32L137.34 23.65C135.78 26.03 133.28 29.86 131.78 32.16L129.05 36.35L128.96 34.12C128.91 32.9 128.85 28.73 128.84 24.85C128.83 20.98 128.78 17.14 128.72 16.33L128.63 14.85L125.32 14.85L122.01 14.85L121.79 15.34ZM170.76 14.96C170.72 15.02 169.62 17.6 168.31 20.68C167 23.77 164.73 29.09 163.27 32.51C161.81 35.92 160.58 38.84 160.54 38.98C160.47 39.23 160.66 39.25 163.11 39.25L165.75 39.25L166.71 36.82L167.67 34.4L170.07 34.4L172.47 34.4L172.47 36.82L172.47 39.25L175.22 39.25L177.96 39.25L177.87 36.71C177.81 35.31 177.7 31.41 177.62 28.03C177.55 24.66 177.44 20.31 177.38 18.37L177.28 14.85L174.05 14.85C172.28 14.85 170.79 14.9 170.76 14.96ZM27.26 19.26C28.36 19.65 28.41 20.56 27.5 24.55C26.99 26.78 26.73 28.09 26.13 31.34C25.78 33.25 25.42 33.93 24.51 34.38C23.86 34.7 21.58 35.12 21.41 34.95C21.37 34.91 21.52 34 21.74 32.93C22.58 28.87 24.55 19.21 24.55 19.15C24.55 19.01 26.81 19.11 27.26 19.26ZM157.23 19.31C157.52 19.42 157.82 19.66 157.91 19.83C158.17 20.31 158.1 21.45 157.71 23.26C157.02 26.45 156.43 29.33 156.13 30.97C155.55 34.07 154.95 34.74 152.56 34.92L151.22 35.02L151.32 34.63C151.42 34.21 153.64 23.41 154.17 20.72L154.49 19.09L155.61 19.09C156.22 19.09 156.95 19.19 157.23 19.31ZM124.14 21.62C124.06 22.77 123.91 24.91 123.82 26.37C123.73 27.83 123.62 29.24 123.58 29.51L123.51 30L121.76 30C120.79 30 120.03 29.95 120.06 29.88C120.09 29.81 121.02 27.42 122.14 24.57C123.26 21.73 124.21 19.43 124.24 19.46C124.28 19.5 124.23 20.47 124.14 21.62ZM172.93 24.57C172.75 27.35 172.57 29.71 172.54 29.81C172.45 30.1 169.14 30.08 169.14 29.79C169.14 29.68 169.88 27.72 170.78 25.44C171.69 23.16 172.59 20.87 172.79 20.35C172.99 19.83 173.17 19.44 173.2 19.47C173.23 19.5 173.11 21.79 172.93 24.57ZM142.66 28.54L139.9 32.51L141.81 32.55C142.86 32.57 143.74 32.57 143.77 32.54C143.82 32.48 145.47 24.64 145.44 24.6C145.42 24.58 144.17 26.35 142.66 28.54ZM50.34 26.86C50.09 27.46 49.77 28.21 49.64 28.53L49.4 29.1L51.31 29.1L53.22 29.1L52.56 28.35C52.19 27.95 51.67 27.2 51.4 26.69C51.12 26.18 50.88 25.76 50.85 25.76C50.82 25.76 50.59 26.26 50.34 26.86ZM84.62 30.95C84.27 33.06 83.97 34.8 83.97 34.82C83.96 34.84 81.03 34.85 77.44 34.85C72.75 34.85 70.93 34.81 70.93 34.69C70.93 34.53 72.37 28.11 72.54 27.55C72.63 27.24 73.26 27.2 80.48 27.16L85.27 27.12L84.62 30.95ZM77.53 29.24L74.2 29.32L74.1 29.78C74.04 30.03 73.86 30.83 73.69 31.56L73.38 32.88L77.75 32.88C80.44 32.88 82.16 32.83 82.22 32.74C82.27 32.65 82.41 31.96 82.53 31.18C82.65 30.41 82.78 29.62 82.83 29.44C82.9 29.11 82.87 29.1 81.88 29.13C81.32 29.15 79.36 29.2 77.53 29.24Z" fill="#14141B" fill-opacity="1.000000" fill-rule="evenodd"/>
</svg>
