<svg width="20.000000" height="20.000000" viewBox="0 0 20 20" fill="none" xmlns="http://www.w3.org/2000/svg" xmlns:xlink="http://www.w3.org/1999/xlink">
	<desc>
			Created with Pixso.
	</desc>
	<defs/>
	<path id="Vector" d="M14.75 11.96C15 12.09 15.16 12.16 15.21 12.26C15.27 12.37 15.25 12.87 15 13.44C14.8 14 13.76 14.54 13.3 14.56C12.84 14.58 12.83 14.92 10.34 13.83C7.84 12.74 6.34 10.08 6.22 9.91C6.1 9.73 5.27 8.53 5.31 7.29C5.35 6.07 6 5.5 6.26 5.26C6.5 5 6.77 4.96 6.94 5L7.4 5C7.56 5 7.77 4.94 7.96 5.45L8.65 7.32C8.71 7.45 8.75 7.6 8.65 7.76L8.39 8.17L8 8.59C7.88 8.7 7.73 8.84 7.88 9.09C8 9.35 8.5 10.18 9.2 10.87C10.1 11.75 10.91 12.04 11.15 12.17C11.39 12.31 11.54 12.29 11.69 12.13L12.5 11.19C12.69 10.94 12.85 11 13.08 11.08L14.75 11.96ZM10 0C11.31 0 12.61 0.25 13.82 0.76C15.04 1.26 16.14 2 17.07 2.92C17.99 3.85 18.73 4.95 19.23 6.17C19.74 7.38 20 8.68 20 10C20 12.65 18.94 15.19 17.07 17.07C15.19 18.94 12.65 20 10 20C8.03 20 6.2 19.43 4.65 18.45L0 20L1.54 15.35C0.57 13.8 0 11.97 0 10C0 7.34 1.05 4.8 2.92 2.92C4.8 1.05 7.34 0 10 0ZM10 2C7.87 2 5.84 2.84 4.34 4.34C2.84 5.84 2 7.87 2 10C2 11.72 2.53 13.31 3.46 14.61L2.5 17.5L5.39 16.54C6.69 17.45 8.28 18 10 18C12.12 18 14.15 17.15 15.65 15.65C17.15 14.15 18 12.12 18 10C18 7.87 17.15 5.84 15.65 4.34C14.15 2.84 12.12 2 10 2Z" fill="#FFFFFF" fill-opacity="1.000000" fill-rule="nonzero"/>
</svg>
