<svg width="18.186646" height="18.186523" viewBox="0 0 18.1866 18.1865" fill="none" xmlns="http://www.w3.org/2000/svg" xmlns:xlink="http://www.w3.org/1999/xlink">
	<desc>
			Created with Pixso.
	</desc>
	<defs/>
	<path id="Vector" d="M13.41 10.87C13.64 10.99 13.78 11.05 13.83 11.14C13.88 11.24 13.86 11.7 13.64 12.22C13.45 12.73 12.51 13.22 12.09 13.23C11.67 13.25 11.66 13.56 9.4 12.57C7.13 11.58 5.77 9.16 5.66 9.01C5.55 8.85 4.79 7.75 4.82 6.63C4.87 5.52 5.45 5 5.69 4.78C5.91 4.54 6.15 4.51 6.31 4.54L6.73 4.54C6.87 4.54 7.06 4.49 7.23 4.95L7.86 6.65C7.92 6.77 7.95 6.91 7.87 7.05L7.62 7.42L7.27 7.81C7.16 7.92 7.03 8.03 7.16 8.26C7.27 8.5 7.72 9.25 8.36 9.88C9.19 10.68 9.92 10.94 10.13 11.06C10.35 11.19 10.49 11.17 10.63 11.03L11.36 10.17C11.53 9.94 11.68 10 11.89 10.07L13.41 10.87ZM9.09 0C10.28 0 11.46 0.23 12.57 0.69C13.67 1.14 14.67 1.81 15.52 2.66C16.36 3.5 17.03 4.51 17.49 5.61C17.95 6.71 18.18 7.89 18.18 9.09C18.18 11.5 17.22 13.81 15.52 15.52C13.81 17.22 11.5 18.18 9.09 18.18C7.3 18.18 5.63 17.66 4.22 16.77L0 18.18L1.4 13.95C0.51 12.54 0 10.88 0 9.09C0 6.68 0.95 4.36 2.66 2.66C4.36 0.95 6.68 0 9.09 0ZM9.09 1.81C7.16 1.81 5.31 2.58 3.94 3.94C2.58 5.31 1.81 7.16 1.81 9.09C1.81 10.65 2.3 12.1 3.14 13.28L2.27 15.91L4.9 15.04C6.08 15.87 7.52 16.36 9.09 16.36C11.02 16.36 12.87 15.6 14.23 14.23C15.6 12.87 16.36 11.02 16.36 9.09C16.36 7.16 15.6 5.31 14.23 3.94C12.87 2.58 11.02 1.81 9.09 1.81Z" fill="#FFFFFF" fill-opacity="1.000000" fill-rule="nonzero"/>
</svg>
